<svg xmlns="http://www.w3.org/2000/svg" viewBox="0 0 1920 127"><path d="M1714.05,105.63a758.42,758.42,0,0,1-115.5,6.11,482,482,0,0,1-51.19-4.54,95.24,95.24,0,0,1-17.89-4.16c-15.48,6.37-37.31,10.19-37.31,10.19-13,2.11-54.15,6.41-86.16,5.58-42.72-1.12-114.77-2-188.67-13-12.94-1.92-91.35-12.57-101.73-13.41-83-8.53-141.41-8.73-141.41-8.73-44.58-.78-80.12.39-125.9,5.09-48.9,5-107.77,16-165.48,23.33,0,0-83.76,15.7-180.24-2L377.83,91.94C287.18,82.29,212.1,79.49,156.29,79.49c-60.3,0-102.43,2.64-102.43,2.64-18.24.56-36.45,1.4-53.86,2.44V127H1920V84.66c-6.87.42-13.63.86-20.19,1.33C1899.81,86,1848.1,90.07,1714.05,105.63Z" fill="#fcfbf8"/><path d="M1920,84.58V77q-10.92.73-22,1.62c-24.18,1.79-78.06,8.11-80.21,8.39C1717,99.22,1661,104.7,1661,104.7c-62.83,4.71-99.08-.17-99.08-.17a240.66,240.66,0,0,1-25.9-4v-.13a9.75,9.75,0,0,1,1.37-.59,158.52,158.52,0,0,0,40.49-23.3A150.84,150.84,0,0,0,1592,63.83c7.27-7.48,12.75-15,15.6-21.45a38.74,38.74,0,0,0,3.12-12,33.9,33.9,0,0,0,0-5.61,23,23,0,0,0-4.57-11.8,26.28,26.28,0,0,0-8-6.78c-4.94-2.81-11.42-4.77-19-5.76a46.48,46.48,0,0,0-35.23,9.67,63.74,63.74,0,0,0-11,11,68.27,68.27,0,0,0-6.63,10.2c-.31.62-.38.72-.43.66a2.72,2.72,0,0,1-.15-.54,28.45,28.45,0,0,0-4-9,42.81,42.81,0,0,0-12.3-12c-5.53-3.6-15.13-6.67-23.4-7.47a38.18,38.18,0,0,0-14.51,1,21.48,21.48,0,0,0-8.4,4.5A18.86,18.86,0,0,0,1459,13.7a33.26,33.26,0,0,0-3.37,11.05,48.11,48.11,0,0,0-.11,6.24,45.59,45.59,0,0,0,5.38,17.66c3.34,6.48,8.07,13,14.85,20.49a102.76,102.76,0,0,0,12.53,12.24c8.67,7,18.91,12.72,31.18,17.27a3.13,3.13,0,0,1,.93.42c-14.61,5.77-42.55,9.42-42.55,9.42-8.59.88-16.59,1.57-23.88,2-86.84,4.23-160.92-3.65-207.45-9.62-22-2.82-47-7-81.72-12C1143.21,85.75,985,63.76,845,79.83c0,0-34.45,3.36-160.13,24.41h0c-66.23,8.08-105.47,5.13-105.63,5.13-21.76-1-66-6.1-66-6.1s-52.59-6.7-95.86-13.39c-138.7-21.46-287.9-19.58-287.9-19.58C67.61,72,16.57,75.7,16.57,75.7Q8.34,76.27,0,76.9v7.67c17.41-1,35.62-1.88,53.86-2.44,0,0,42.13-2.64,102.43-2.64,55.81,0,130.89,2.8,221.54,12.45l124.74,18.23c96.48,17.67,180.24,2,180.24,2,57.71-7.28,116.58-18.32,165.48-23.33,45.78-4.7,81.32-5.87,125.9-5.09,0,0,58.43.2,141.41,8.73,10.38.84,88.79,11.49,101.73,13.41,73.9,11,146,11.83,188.67,13,32,.83,73.2-3.47,86.16-5.58,0,0,21.83-3.82,37.31-10.19a95.24,95.24,0,0,0,17.89,4.16,482,482,0,0,0,51.19,4.54,758.42,758.42,0,0,0,115.5-6.11C1848.1,90.07,1899.81,86,1899.81,86c6.56-.47,13.32-.91,20.19-1.33Zm-394.66,12.7h0a4.37,4.37,0,0,1-.72.25l-.9-.23a90,90,0,0,1-29-13.81,83.4,83.4,0,0,1-25.2-29.19,58.7,58.7,0,0,1-6.15-18.54,28,28,0,0,1-.12-6.07c.89-8,4.65-14.22,10.85-17.92a29.31,29.31,0,0,1,13-3.85,54.55,54.55,0,0,1,16.44,1.64,21.22,21.22,0,0,1,8,4A27.41,27.41,0,0,1,1514,16a28.21,28.21,0,0,1,6,13.29,54.86,54.86,0,0,1,.9,9.22v.76l.22.18c1.11.93,7.11,3.45,8.09,3.41h.22l.43-.82c.67-1.29,2.6-4.74,3.35-6A77.47,77.47,0,0,1,1548,17.5,50.28,50.28,0,0,1,1561,9a58.57,58.57,0,0,1,13.76-4.15,39.23,39.23,0,0,1,10.65-.7,25.91,25.91,0,0,1,8.91,2.47,16,16,0,0,1,9.27,13.14,28.69,28.69,0,0,1-1.11,10.58c-2.73,9.81-9,19.86-18.15,29.29a129.67,129.67,0,0,1-10.11,9.22c-10.89,8.91-24.57,17.32-39.82,24.47C1531.86,94.54,1527.39,96.48,1525.34,97.28Z" fill="#f8ba43" opacity="0.2"/></svg>