<svg xmlns="http://www.w3.org/2000/svg" viewBox="0 0 350 115" class=" desktop-nav-logo-graphic" data-name="logo-yellow-heart"><path d="M155.12,9.5l.76,0,.75,0L157.42,8c1.22-2.31,1.7-4.51,1.29-5.91A2.72,2.72,0,0,0,156,0a2.8,2.8,0,0,0-2.74,1.81c-.48,1.27,0,3.61,1.43,6.77Z" fill="#fff"></path><path d="M153.48,21.35h0l.05,9.32c.05,9.73.13,11.73.13,12.2,0,3,3.41,3,3.41,3,2.27-.1,4.8-2.14,4.8-2.14L165.59,41l-.77-.88-4.34,2.2c-2,.58-1.93-1-1.93-1v-11l0-7.3-.05-4s.3-2.24-3.05-3.36l-4.23,2.63A4.25,4.25,0,0,1,153.48,21.35Z" fill="#fff"></path><path d="M104.18,17.3h0a7.39,7.39,0,0,0,3,3.41,16.25,16.25,0,0,0,3.07,1.37c.23,0,.39-.26.59-1.16l.08-.37-1.39-.67a6,6,0,0,1-3.1-2.71,3.1,3.1,0,0,1-.26-1.87,3.55,3.55,0,0,1,.44-2,6.4,6.4,0,0,1,3.23-3.05c2.33-1.25,6-2,11.07-2.2a11.49,11.49,0,0,1,1.76,0s-.39.69-.86,1.45a23.34,23.34,0,0,0-2,4,.39.39,0,0,1-.11.27,7.24,7.24,0,0,0-.41,1.35,10.82,10.82,0,0,0-.12,4.6,21.78,21.78,0,0,0,2.4,5,16.13,16.13,0,0,1,1.85,3.63,2.71,2.71,0,0,1-.83,3.18,4,4,0,0,1-4.65.65c-1.69-.86-2.66-3.26-2.39-5.93.07-.61.13-1.17.14-1.23s-.37-.25-.86-.4c-.67-.21-.9-.25-1-.14a12.27,12.27,0,0,0-.46,2.88,7.87,7.87,0,0,0,3.2,6.66,7.75,7.75,0,0,0,10.7-2.15h0c0-.08.11-.15.15-.23a6.44,6.44,0,0,0,1-3.75c0-2.36-.43-3.25-3.38-7.26a21.66,21.66,0,0,1-2.19-3.48,8.13,8.13,0,0,1-.09-4,31,31,0,0,1,2.3-5c.08-.09.31-.12.67-.08a24.9,24.9,0,0,1,13,5.18,18.72,18.72,0,0,1,6.84,11.16,20.72,20.72,0,0,1,0,5.78c-1,5.39-4.47,9.62-9,10.85a14.51,14.51,0,0,1-5.76.17,41.38,41.38,0,0,1-5.7-2,50.79,50.79,0,0,0-5.5-2,14.76,14.76,0,0,0-6.84.34,12.2,12.2,0,0,0-3.38,1.7,22.69,22.69,0,0,0-3,2.89,2.34,2.34,0,0,1-.37.4c-.25.11,0,.41.66.84l.74.47.68-.76a9.3,9.3,0,0,1,3.12-2.25,4.12,4.12,0,0,1,1.9-.34c1.36,0,2.1.22,5.1,1.55a61,61,0,0,0,7,2.84,26.19,26.19,0,0,0,3.8.89c.2,0,1,0,1.87.06a15.39,15.39,0,0,0,13.53-6.79,15.1,15.1,0,0,0,1.8-3.33,27.92,27.92,0,0,0,2-10.8,18.34,18.34,0,0,0-.33-4.18l-.07-.3s-.38-1.34-.51-1.75c-1.69-5.41-6.25-10.4-12.09-13.24a29.49,29.49,0,0,0-19.7-2,17,17,0,0,0-3.77,1.36A15.71,15.71,0,0,0,107.16,8a9.5,9.5,0,0,0-3.23,7.7A8.13,8.13,0,0,0,104.18,17.3Z" fill="#fff"></path><path d="M174.51,45.87h0a6.6,6.6,0,0,0,4.07-1.12c2.48-1.52,7.09-4.29,7.24-4.52-.25-.3-.44-.77-.67-1.09-1,.08-6.32,3.53-7.92,3.81-3.35-.24-6-6.44-6.85-9.67,3.67-1.46,10.2-4.42,12.31-5.33a5,5,0,0,0,1.89-1.16,2.1,2.1,0,0,0,.35-1.35c-.39-3.58-3.47-7.19-5.9-9.56-.29-.28-1.2-.24-2.15-.15a10.32,10.32,0,0,0-5,2.16c-4.73,3.55-6.9,9.65-6.33,15.61C166,38.2,168.35,45.1,174.51,45.87Zm-.27-27h0s.77-.6,1.18-.28c1.31,1.33,4.51,7.11,4.79,8.59-1,.47-9.41,4.25-10,4.57C169.7,27.37,170.69,21.51,174.24,18.83Z" fill="#fff"></path><path d="M97.79,48.62l.74,0,.73,0,.77-1.48c1.19-2.3,1.67-4.5,1.26-5.9a2.65,2.65,0,0,0-2.63-2.05A2.71,2.71,0,0,0,96,40.93c-.47,1.26,0,3.61,1.39,6.77Z" fill="#fff"></path><path d="M96.18,60.47h0l0,9.32c.06,9.73.13,11.73.13,12.2,0,3,3.33,3,3.33,3,2.22-.1,4.7-2.15,4.7-2.15L108,80.09l-.75-.88L103,81.41c-2,.58-1.89-1-1.89-1v-11l0-7.3,0-4s.3-2.24-3-3.36l-4.14,2.62A4.22,4.22,0,0,1,96.18,60.47Z" fill="#fff"></path><path d="M202.52,44.7a4.62,4.62,0,0,1,1.9,2.73l.11,22.11c.06,9.83.14,11.85.14,12.32,0,3,3.44,3,3.44,3,2.3-.1,4.86-2.16,4.86-2.16l3.76-2.8-.79-.89-4.39,2.22c-2,.59-2-1-2-1V69.1l-.24-22.54-.07-1.27s.21-2.7-3.19-3.83h0Z" fill="#fff"></path><path d="M118.64,84.28a41.67,41.67,0,0,0,7.8-5.29l-1-.7s-4,2.37-5.61,3.13c0,0-3.69,1.62-3.91-2.54h0V59.45h6.47V56.82h-6.15L116,44.69h-2.52s.84,10.81-6.78,13.15v1.75h4.42V80.1s-.08,3.16,2.52,4.4h0S115.56,85.67,118.64,84.28Z" fill="#fff"></path><polygon points="80.94 84.98 80.94 84.98 80.94 84.98 80.94 84.98" fill="#fff"></polygon><path d="M80.94,85A6.52,6.52,0,0,0,85,83.86c2.48-1.51,7.09-4.28,7.24-4.51-.25-.3-.44-.77-.67-1.1-1,.09-6.32,3.53-7.92,3.81-3.35-.24-6-6.43-6.85-9.67C80.48,70.94,87,68,89.12,67.07A4.89,4.89,0,0,0,91,65.9a2,2,0,0,0,.34-1.35C91,61,87.89,57.36,85.46,55a3.72,3.72,0,0,0-2.15-.15,10.34,10.34,0,0,0-5,2.17c-4.73,3.54-6.91,9.65-6.33,15.6C72.45,77.32,74.78,84.22,80.94,85Zm-.27-27h0s.77-.6,1.18-.28c1.31,1.34,4.51,7.11,4.79,8.59-1,.48-9.41,4.25-10,4.57C76.13,66.48,77.12,60.62,80.67,57.94Z" fill="#fff"></path><path d="M145.3,79.35c-.25-.3-.45-.77-.67-1.1-1,.09-6.32,3.53-7.92,3.81-3.35-.24-6.05-6.43-6.86-9.67,3.67-1.45,10.89-4.59,13-5.5a5.07,5.07,0,0,0,1.89-1.16,2,2,0,0,0,.34-1.35c-.39-3.58-3.47-7.19-5.89-9.56-.29-.28-1.21-.24-2.15-.15A13.34,13.34,0,0,0,131.37,57c-4.73,3.55-6.91,9.65-6.33,15.61.46,4.71,2.79,11.6,9,12.37a6.55,6.55,0,0,0,4.07-1.12C140.54,82.35,145.14,79.58,145.3,79.35ZM133.71,57.94h0s.76-.61,1.18-.29h0A31.64,31.64,0,0,1,138.35,62a11.51,11.51,0,0,1,2,4c-1,.47-10.1,4.42-10.74,4.74C129.17,66.48,130.17,60.62,133.71,57.94Z" fill="#fff"></path><polygon points="133.99 84.98 133.99 84.98 133.98 84.98 133.99 84.98" fill="#fff"></polygon><path d="M164.78,82c0,3,3.3,3,3.3,3,2.19-.1,4.64-2.14,4.64-2.14l3.6-2.78-.75-.87-4.19,2.19c-1.95.58-1.87-1-1.87-1l-.13-17.53a.08.08,0,0,0,0,0c0-2.46.38-4.92-1.72-6.8-1.78-1.59-4.06-1.61-6.31-1.21-2.4.43-4.72,3.42-6.69,5.09,0-.46-.06-4.39-2.95-5.39l-4.1,2.62a5.35,5.35,0,0,1,2.22,3.49l0,2.94h0v20s0,2.14,1.64,1.07l2.73-2a1.86,1.86,0,0,0,.55-1.53l-.09-18.66c1.35-2.17,3.67-5.73,6.89-4.79,2.32.67,2.87,2.09,3,3.93,0,.12,0,8.18,0,8.18v0C164.7,79.52,164.78,81.51,164.78,82Z" fill="#fff"></path><polygon points="250.94 56.18 250.94 56.19 250.95 56.19 250.94 56.18" fill="#fff"></polygon><path d="M244.59,55c-2.89.53-6.84,5.64-7,5.81l0,0c-.1-1.83-.66-3.67-1.58-4.48-1.79-1.59-4.09-1.61-6.35-1.21s-5.22,3.2-6.74,5.43c0-.48-.15-5.25-3-6.22L215.83,57a5.27,5.27,0,0,1,2.23,3.46l.05,23.1s-.05,2.14,1.65,1.07l2.75-2a1.88,1.88,0,0,0,.56-1.54L223,63.15c1.54-2.12,3.63-5.7,6.94-5.17a3.34,3.34,0,0,1,2.17,1.32,4.56,4.56,0,0,1,.79,2.36l.11,7.78c0,2.31,0,4.19,0,5.74l0,8.17s-.05,2.14,1.65,1.07l2.74-2a1.86,1.86,0,0,0,.56-1.53l-.09-17.38c1.47-2.24,3.58-6.26,6.94-5.68A3.39,3.39,0,0,1,247,59.16a4.53,4.53,0,0,1,.79,2.36l.11,7.77c.05,9.74.13,12,.13,12.5,0,3,3.31,3,3.31,3,2.22-.1,4.68-2.14,4.68-2.14l3.62-2.78-.75-.87-4.23,2.19c-2,.58-1.87-1-1.87-1l-.13-17.67c0-2.3.25-4.57-1.74-6.34C249.15,54.6,246.85,54.56,244.59,55Z" fill="#fff"></path><path d="M32.78,68h0c.07.58.16,1.46.2,1.94.3,3.54,2.34,7.46,5.53,10.61A16.22,16.22,0,0,0,47.82,85h0a29.21,29.21,0,0,0,6.93-.16,20.28,20.28,0,0,0,8.89-4.27,16.47,16.47,0,0,0,5.25-7.86,9.68,9.68,0,0,0,.33-3.47,11.09,11.09,0,0,0-.77-4.93A11.49,11.49,0,0,0,63,58.13a7.46,7.46,0,0,0-4-.88,8,8,0,0,0-4.52,1.11,44.64,44.64,0,0,0-4.69,2.84,24.65,24.65,0,0,1-2.74,1.66,5.81,5.81,0,0,1-2.77.7,3.67,3.67,0,0,1-2.73-1.17,9.54,9.54,0,0,1,.21-13.54,9.68,9.68,0,0,1,4.84-2.52c1.43-.22,2.49,0,6.75,1.41s5.31,1.66,6.74,1.44a7.85,7.85,0,0,0,4.49-2.55,13,13,0,0,0,2-2.3,1.09,1.09,0,0,0-.33-.46c-.73-.68-.63-.68-1.71.05-2.57,1.76-3.68,1.76-7.45,0-3.48-1.6-5.88-2.25-8.27-2.25a10.39,10.39,0,0,0-7.61,3.39,11.24,11.24,0,0,0-2.09,2.42,18.22,18.22,0,0,0-2.38,5.66A14.09,14.09,0,0,0,36.43,57a14.58,14.58,0,0,0,.31,3.95,11.23,11.23,0,0,0,2.68,5.6,7.55,7.55,0,0,0,6,2.51,8.05,8.05,0,0,0,2-.19A16.42,16.42,0,0,0,52,66.5c4.92-3.36,5.83-3.88,7.37-4.19a6.28,6.28,0,0,1,4.44.78,6.86,6.86,0,0,1,2.4,8.55A12.66,12.66,0,0,1,60,77.71a20.77,20.77,0,0,1-12.78,1.62c-4.49-.91-8.36-3.19-10.31-6.08-.94-1.41-1.33-2.39-2.08-5.34-.36-1.38-.74-2.72-.84-3a3.67,3.67,0,0,0-2.54-2c-1-.35-1-.33-1.21.55a3.08,3.08,0,0,0-.1.8l.61.31A3.84,3.84,0,0,1,32.78,68Z" fill="#fff"></path><path d="M179.52,60.54h0c-1.61,1.53-2.06,3.07-2.33,7.28-.07,1.07-.18,2.48-.18,3.87,0,0,.33,4.2.69,6.06a9.28,9.28,0,0,0,5.4,6.72,3.7,3.7,0,0,0,3.53-.29l4.66-2.8a4.33,4.33,0,0,0,2,3.32,2.16,2.16,0,0,0,1.32.28c1.95,0,4.29-2.14,4.29-2.14l3.22-2.9-.59-.75-3.42,1.93a4.43,4.43,0,0,1-.84.36c-1,.24-1.24-.67-1.31-1.08v-18l1.56-1.31a1,1,0,0,0,.29-1.4,1.05,1.05,0,0,0-.42-.36l-8-4.41a2.58,2.58,0,0,0-2.47.39l-1.34.9A54.26,54.26,0,0,0,179.52,60.54Zm11.55,1.08h0l0,18-3.54,1.83a2.23,2.23,0,0,1-2.85-.78,16.66,16.66,0,0,1-1.87-3.51,23,23,0,0,1-.83-5.53,46.18,46.18,0,0,1,.23-5.88,17.38,17.38,0,0,1,1.52-5,4.72,4.72,0,0,1,2.74-2Z" fill="#fff"></path><path d="M331.49,88.74h0c-2.14,1.58-12,5.28-16.5,6.67-8.53,2-16.79,6-46.52.67-4-.73-9.66-1.82-12.16-2.38,3.25-1.76,6.16-3.46,8.69-5a124.89,124.89,0,0,0,23.52-15.83A121.37,121.37,0,0,0,299.85,62c5.82-6.42,10.61-13.63,12.9-19.16a34.91,34.91,0,0,0,2.51-10.3,32.18,32.18,0,0,0,0-4.81,20.59,20.59,0,0,0-3.12-9.2c-1.38-2.42-5.12-5.63-7.74-7.23-3.95-2.41-8.39-3.47-14.53-3.7-9.6-.37-18.15,1.81-27.5,8.45a43.67,43.67,0,0,0-9.65,9.25A59.13,59.13,0,0,0,247.4,34c-.26.53-.31.62-.35.57a2.66,2.66,0,0,1-.11-.47,25.45,25.45,0,0,0-3.16-7.71A35.52,35.52,0,0,0,234,16.09c-4.42-3.09-12.08-5.73-18.69-6.41a29.21,29.21,0,0,0-11.85,1.4c-2.67.83-5.12,2.92-7,4.69A16.07,16.07,0,0,0,193,20.29a30.47,30.47,0,0,0-2.7,9.48,45.67,45.67,0,0,0-.1,5.36,41.21,41.21,0,0,0,4.28,15.15c.91,1.92,1.85,3.82,2.9,5.75A35.43,35.43,0,0,0,201.25,60s-9.42-17.12-3.17-33.72a18,18,0,0,1,7.55-8.95A22.31,22.31,0,0,1,216,14,23.85,23.85,0,0,1,228,16.16c5.42,2.34,13,7.2,13.93,16.52.25,2.4.64,4.69.71,7.9l0,.66.17.15c.88.8,6.12,4.24,6.9,4.2h.18l.34-.7c.53-1.11,2.08-4.07,2.68-5.14a66.06,66.06,0,0,1,11.93-15.88,40.23,40.23,0,0,1,10.38-7.28,44.22,44.22,0,0,1,11-3.56,29.41,29.41,0,0,1,8.52-.61,19.75,19.75,0,0,1,7.12,2.12S312,20,309,35.19c-1.7,8.53-7.9,15.08-15.26,23.17a104.13,104.13,0,0,1-8.09,7.91,174.55,174.55,0,0,1-21.86,16.9c-5.65,3.18-11.13,6-16.43,8.45-2.52-.83-10.36-3.87-13.37-5.36-2.87-1.31-4.75-2.32-4.75-2.32l-2.57-1.46-.07.58c3.78,3.72,13.34,8.59,16.87,10.32-52.4,23.17-87.37,13.36-112.12,8.29-21-4-33.86-5.7-34-5.71-62.25-10.59-88-.5-97.34,5.75,11.1-4.63,26.05-6.27,41.64-6.27,20.73,0,42.57,2.9,57.92,5.49,10.19,1.72,36.24,6.86,44.9,8.79A165.7,165.7,0,0,0,193,113.3c23.45-1.89,43.95-9.71,58.78-17.2.56.1,1.14.22,1.57.34,0,0,29.14,9.17,49.54,6.72,10.53-1.27,19.75-3.61,30.6-9.6A46.94,46.94,0,0,0,350,75.69,117.71,117.71,0,0,1,331.49,88.74Z" fill="#f8ba43"></path></svg>